<svg fill="none" height="28" viewBox="0 0 28 28" width="28" xmlns="http://www.w3.org/2000/svg"><g fill="#2a2238"><path d="m17.049 6.70384c-.5048-.5048-1.3327-.5048-1.8375 0l-6.42112 6.44136c-.49135.4913-.50481 1.2856-.04038 1.7904l6.3269 6.3471c.2558.2558.5856.3836.9221.3836.3298 0 .6664-.1278.9154-.3769.5048-.5048.5116-1.3259 0-1.8375l-5.3711-5.4519 5.5125-5.45866c.5048-.5048.5048-1.32596-.0068-1.8375z"/><path d="m14 0c-7.73365 0-14 6.26635-14 14 0 7.7337 6.26635 14 14 14 7.7337 0 14-6.2663 14-14 0-7.73365-6.2663-14-14-14zm8.3731 22.3731c-2.2346 2.2413-5.2096 3.4731-8.3731 3.4731s-6.13846-1.2318-8.37308-3.4731c-2.24134-2.2346-3.47307-5.2096-3.47307-8.3731s1.23173-6.13846 3.47307-8.37308c2.23462-2.24134 5.20958-3.47307 8.37308-3.47307s6.1385 1.23173 8.3731 3.47307c2.2413 2.23462 3.4731 5.20958 3.4731 8.37308s-1.2318 6.1385-3.4731 8.3731z"/></g></svg>