<svg fill="none" height="28" viewBox="0 0 28 28" width="28" xmlns="http://www.w3.org/2000/svg"><g fill="#2a2238"><path d="m10.951 21.2962c.5048.5048 1.3327.5048 1.8375 0l6.4211-6.4414c.4914-.4913.5048-1.2856.0404-1.7904l-6.3269-6.34709c-.2558-.25577-.5856-.38365-.9221-.38365-.3298 0-.6664.12788-.9154.37692-.5048.50481-.5116 1.32596 0 1.8375l5.3711 5.45192-5.5125 5.4587c-.5048.5048-.5048 1.3259.0068 1.8375z"/><path d="m14 28c7.7337 0 14-6.2663 14-14 0-7.73366-6.2663-14.00000143-14-14.00000143-7.73366 0-14.00000143 6.26634143-14.00000143 14.00000143 0 7.7337 6.26634143 14 14.00000143 14zm-8.37308-22.37308c2.23462-2.24134 5.20958-3.47308 8.37308-3.47308s6.1385 1.23174 8.3731 3.47308c2.2413 2.23462 3.4731 5.20958 3.4731 8.37308s-1.2318 6.1385-3.4731 8.3731c-2.2346 2.2413-5.2096 3.4731-8.3731 3.4731s-6.13846-1.2318-8.37308-3.4731c-2.24134-2.2346-3.47308-5.2096-3.47308-8.3731s1.23174-6.13846 3.47308-8.37308z"/></g></svg>