<svg fill="none" height="20" viewBox="0 0 20 20" width="20" xmlns="http://www.w3.org/2000/svg"><g fill="#212121"><path d="m2 10.6643v2.8357c0 1.3807 1.11929 2.5 2.5 2.5h11c1.3807 0 2.5-1.1193 2.5-2.5v-7c0-1.38071-1.1193-2.5-2.5-2.5h-6.02217l.67157.67157c.1041.10407.1989.21389.2845.32843h5.0661c.8284 0 1.5.67157 1.5 1.5v7c0 .8284-.6716 1.5-1.5 1.5h-11c-.82843 0-1.5-.6716-1.5-1.5v-1.8357z"/><path d="m4.99994 1.5c0-.27614.22386-.5.5-.5s.5.22386.5.5v1.17373c.48037.02226.95424.2168 1.32107.58363l2.12132 2.12132c.78107.78105.78107 2.04738 0 2.82843l-2.82843 2.82839c-.78105.7811-2.04738.7811-2.82842 0l-2.12132-2.12129c-.781053-.78105-.781053-2.04737 0-2.82842l2.82842-2.82843c.15294-.15294.32449-.27593.50736-.36898zm0 4v-1.33579l-2.33578 2.33579h6.32031c-.04628-.15158-.12936-.29433-.24925-.41421l-2.12132-2.12132c-.17154-.17155-.38991-.26774-.61396-.28858v1.82411c0 .27614-.22386.5-.5.5s-.5-.22386-.5-.5zm-2.92157 2c0 .25592.09763.51184.29289.70711l2.12132 2.12129c.39053.3906 1.02369.3906 1.41422 0l2.82842-2.8284z"/><path d="m10.1622 8.42612.2148-.25913c.0949-.10624.2306-.16699.373-.16699s.2781.06075.373.16699l.2148.25913c.1244.15764.2909.38058.4581.64155.3184.49658.7041 1.22743.7041 1.93233 0 1.0086-.6725 2-1.75 2-1.07747 0-1.75-.9914-1.75-2 0-.7049.38574-1.43575.70406-1.93233.16729-.26097.33374-.48391.45814-.64155zm.5878.88124c-.0655.09116-.1349.19208-.2041.29997-.3061.47757-.5459.99717-.5459 1.39267 0 .293.1003.5664.2481.7489.1357.1675.2992.2511.5019.2511s.3662-.0836.5019-.2511c.1478-.1825.2481-.4559.2481-.7489 0-.3955-.2398-.9151-.5459-1.39267-.0692-.10789-.1386-.20881-.2041-.29997z"/></g></svg>