<svg height="24" viewBox="0 0 24 24" width="24" xmlns="http://www.w3.org/2000/svg"><path d="m22 19c0 1.6568542-1.3431458 3-3 3h-14c-1.65685425 0-3-1.3431458-3-3v-14c0-1.65685425 1.34314575-3 3-3h4.0005c.55200861 0 .9995.44749139.9995.9995 0 .55204094-.44745905.99958949-.99949998.9996999l-4.00050002.0008001c-.55228475 0-1 .44771525-1 1v13.278l4.18626653-5.8592382c.31390398-.4394656.9132252-.5450489 1.35497449-.2597788l.09894338.0727957 5.1448156 4.2862213 1.3829497-2.0727002c.3267055-.4900582.9956328-.5868089 1.4461622-.2347399l.0929949.0823333 2.2928932 2.2921068v-1.585c0-.5522847.4477153-1 1-1s1 .4477153 1 1zm-12.813-4.542-3.959 5.542h13.772c.4289102 0 .794752-.2700279.9367986-.6493566l-2.7817986-2.7806434-1.3229497 1.9847002c-.3077555.4616332-.9257088.5790561-1.3780197.2832567l-.094215-.0697356zm7.813-12.458c.5522847 0 1 .44771525 1 1v3h3c.5522847 0 1 .44771525 1 1s-.4477153 1-1 1h-3v3c0 .5522847-.4477153 1-1 1s-1-.4477153-1-1v-3h-3c-.5522847 0-1-.44771525-1-1s.4477153-1 1-1h3v-3c0-.55228475.4477153-1 1-1zm-9 4c1.1045695 0 2 .8954305 2 2s-.8954305 2-2 2-2-.8954305-2-2 .8954305-2 2-2z" fill-rule="evenodd"/></svg>