<svg height="24" viewBox="0 0 24 24" width="24" xmlns="http://www.w3.org/2000/svg"><path d="m17.5 12c3.0375661 0 5.5 2.4624339 5.5 5.5s-2.4624339 5.5-5.5 5.5-5.5-2.4624339-5.5-5.5 2.4624339-5.5 5.5-5.5zm0 1.9992349-.0898756.0080557c-.2040931.0370439-.3650248.1979756-.4020687.4020687l-.0080557.0898756-.0003502 2.5-2.502.0007651-.0898756.0080557c-.2040931.0370439-.3650248.1979756-.4020687.4020687l-.0080557.0898756.0080557.0898756c.0370439.2040931.1979756.3650248.4020687.4020687l.0898756.0080557 2.503-.0007651.0004578 2.5042498.0080557.0898756c.037044.2040931.1979757.3650248.4020687.4020687l.0898756.0080557.0898757-.0080557c.204093-.0370439.3650247-.1979756.4020687-.4020687l.0080556-.0898756-.0004578-2.5042498 2.5039157.0007651.0898756-.0080557c.2040931-.0370439.3650248-.1979756.4020687-.4020687l.0080557-.0898756-.0080557-.0898756c-.0370439-.2040931-.1979756-.3650248-.4020687-.4020687l-.0898756-.0080557-2.5049157-.0007651.0003502-2.5-.0080557-.0898756c-.0423359-.2332492-.2464844-.4101244-.4919443-.4101244zm-1.25-10.4992349c.3796958 0 .693491.28215388.7431534.64822944l.0068466.10177056v2c0 .41421356-.3357864.75-.75.75-.3796958 0-.693491-.28215388-.7431534-.64822944l-.0068466-.10177056v-.25h-4.75v13.5l.5636354.0004209c.1722264.5330087.4114235 1.0359091.7076725 1.4987824l-.0213079.0007967h-4c-.41421356 0-.75-.3357864-.75-.75 0-.3796958.28215388-.693491.64822944-.7431534l.10177056-.0068466h1.25v-13.5h-4.75v.25c0 .37969577-.28215388.69349096-.64822944.74315338l-.10177056.00684662c-.37969577 0-.69349096-.28215388-.74315338-.64822944l-.00684662-.10177056v-2c0-.41421356.33578644-.75.75-.75.37969577 0 .69349096.28215388.74315338.64822944l.00684662.10177056v.25h11v-.25c0-.37969577.2821539-.69349096.6482294-.74315338z" fill="#212121"/></svg>